<svg width="21" height="20" viewBox="0 0 21 20" fill="none" xmlns="http://www.w3.org/2000/svg">
<g clip-path="url(#clip0_33_567)">
<path d="M11.6316 15.1276C15.4704 13.4961 17.2598 9.06159 15.6284 5.22276C13.9969 1.38392 9.56236 -0.405502 5.72353 1.22596C1.88469 2.85743 0.0952694 7.29198 1.72674 11.1308C3.3582 14.9697 7.79275 16.7591 11.6316 15.1276Z" stroke="#212121" stroke-width="1.5" stroke-linecap="round" stroke-linejoin="round"/>
<path d="M10.7421 13.0349C13.4252 11.8946 14.6758 8.79519 13.5356 6.11212C12.3953 3.42905 9.29584 2.17836 6.61277 3.31864C3.9297 4.45892 2.67902 7.55836 3.8193 10.2414C4.95957 12.9245 8.05901 14.1752 10.7421 13.0349Z" fill="#212121" stroke="#212121" stroke-width="1.5" stroke-linecap="round" stroke-linejoin="round"/>
<path d="M14.0176 13.5167L19.8751 19.375" stroke="#212121" stroke-width="1.5" stroke-linecap="round" stroke-linejoin="round"/>
</g>
<defs>
<clipPath id="clip0_33_567">
<rect width="20" height="20" fill="white" transform="translate(0.5)"/>
</clipPath>
</defs>
</svg>
