<svg width="21" height="20" viewBox="0 0 21 20" fill="none" xmlns="http://www.w3.org/2000/svg">
<g clip-path="url(#clip0_25_192)">
<path d="M16.3741 5.62499H4.61328C4.33087 5.61348 4.05387 5.70488 3.83378 5.88221C3.61368 6.05955 3.46544 6.31076 3.41662 6.58916L1.74995 18.185C1.74132 18.3442 1.76644 18.5034 1.82367 18.6522C1.8809 18.801 1.96894 18.936 2.08202 19.0484C2.1951 19.1607 2.33066 19.2479 2.47981 19.3042C2.62896 19.3605 2.78832 19.3846 2.94745 19.375H18.04C18.199 19.3846 18.3584 19.3605 18.5075 19.3042C18.6566 19.2479 18.7921 19.1607 18.9051 19.0483C19.0181 18.9359 19.1061 18.8009 19.1632 18.6521C19.2204 18.5033 19.2454 18.3441 19.2366 18.185L17.5699 6.58916C17.5211 6.31091 17.373 6.05981 17.1531 5.8825C16.9332 5.70518 16.6564 5.61368 16.3741 5.62499Z" fill="#212121" stroke="#212121" stroke-width="1.5" stroke-linecap="round" stroke-linejoin="round"/>
<path d="M13.5517 3.1725C13.4148 2.45744 13.0335 1.81224 12.4731 1.34747C11.9127 0.882701 11.2081 0.627289 10.4801 0.625C9.75562 0.628178 9.05461 0.8821 8.49617 1.34362C7.93773 1.80513 7.55632 2.44577 7.41675 3.15667" stroke="#212121" stroke-width="1.5" stroke-linecap="round" stroke-linejoin="round"/>
</g>
<defs>
<clipPath id="clip0_25_192">
<rect width="20" height="20" fill="white" transform="translate(0.5)"/>
</clipPath>
</defs>
</svg>
