<svg width="21" height="20" viewBox="0 0 21 20" fill="none" xmlns="http://www.w3.org/2000/svg">
<g clip-path="url(#clip0_25_418)">
<path d="M18.625 10.625V18.125C18.625 18.4565 18.4933 18.7745 18.2589 19.0089C18.0245 19.2433 17.7065 19.375 17.375 19.375H3.625C3.29348 19.375 2.97554 19.2433 2.74112 19.0089C2.5067 18.7745 2.375 18.4565 2.375 18.125V10.625" stroke="#212121" stroke-width="1.5" stroke-linecap="round" stroke-linejoin="round"/>
<path d="M18.1233 0.625H2.87667C2.73441 0.624977 2.5964 0.673416 2.48536 0.762335C2.37433 0.851254 2.2969 0.975348 2.26583 1.11417L1.125 6.25C1.125 6.74728 1.32254 7.22419 1.67417 7.57583C2.02581 7.92746 2.50272 8.125 3 8.125C3.49728 8.125 3.97419 7.92746 4.32582 7.57583C4.67746 7.22419 4.875 6.74728 4.875 6.25C4.875 6.74728 5.07254 7.22419 5.42417 7.57583C5.77581 7.92746 6.25272 8.125 6.75 8.125C7.24728 8.125 7.72419 7.92746 8.07582 7.57583C8.42746 7.22419 8.625 6.74728 8.625 6.25C8.625 6.74728 8.82254 7.22419 9.17417 7.57583C9.52581 7.92746 10.0027 8.125 10.5 8.125C10.9973 8.125 11.4742 7.92746 11.8258 7.57583C12.1775 7.22419 12.375 6.74728 12.375 6.25C12.375 6.74728 12.5725 7.22419 12.9242 7.57583C13.2758 7.92746 13.7527 8.125 14.25 8.125C14.7473 8.125 15.2242 7.92746 15.5758 7.57583C15.9275 7.22419 16.125 6.74728 16.125 6.25C16.125 6.74728 16.3225 7.22419 16.6742 7.57583C17.0258 7.92746 17.5027 8.125 18 8.125C18.4973 8.125 18.9742 7.92746 19.3258 7.57583C19.6775 7.22419 19.875 6.74728 19.875 6.25L18.7333 1.11417C18.7026 0.975344 18.6253 0.851183 18.5144 0.762229C18.4035 0.673275 18.2655 0.624862 18.1233 0.625Z" stroke="#212121" stroke-width="1.5" stroke-linecap="round" stroke-linejoin="round"/>
<path d="M2.375 14.375H13" stroke="#212121" stroke-width="1.5" stroke-linecap="round" stroke-linejoin="round"/>
<path d="M13 19.375V10.625" stroke="#212121" stroke-width="1.5" stroke-linecap="round" stroke-linejoin="round"/>
</g>
<defs>
<clipPath id="clip0_25_418">
<rect width="20" height="20" fill="white" transform="translate(0.5)"/>
</clipPath>
</defs>
</svg>
